<svg xmlns="http://www.w3.org/2000/svg" xmlns:xlink="http://www.w3.org/1999/xlink" viewBox="0 0 749.22 179.18"><defs><style>.cls-1{fill:none;}.cls-2{fill:#63008c;}.cls-3{clip-path:url(#clip-path);}.cls-4{fill:#f03759;}.cls-5{fill:#ef375a;}.cls-6{fill:#ee375b;}.cls-7{fill:#ee365c;}.cls-8{fill:#ed365d;}.cls-9{fill:#ed355e;}.cls-10{fill:#ec355f;}.cls-11{fill:#eb3560;}.cls-12{fill:#eb3461;}.cls-13{fill:#ea3462;}.cls-14{fill:#e93463;}.cls-15{fill:#e93364;}.cls-16{fill:#e83365;}.cls-17{fill:#e83366;}.cls-18{fill:#e73267;}.cls-19{fill:#e63268;}.cls-20{fill:#e63269;}.cls-21{fill:#e5316a;}.cls-22{fill:#e5316b;}.cls-23{fill:#e4316c;}.cls-24{fill:#e3306d;}.cls-25{fill:#e3306e;}.cls-26{fill:#e2306f;}.cls-27{fill:#e12f70;}.cls-28{fill:#e12f71;}.cls-29{fill:#e02e72;}.cls-30{fill:#e02e73;}.cls-31{fill:#df2e74;}.cls-32{fill:#de2d75;}.cls-33{fill:#de2d76;}.cls-34{fill:#dd2d77;}.cls-35{fill:#dd2c78;}.cls-36{fill:#dc2c79;}.cls-37{fill:#db2c7a;}.cls-38{fill:#db2b7b;}.cls-39{fill:#da2b7c;}.cls-40{fill:#d92b7d;}.cls-41{fill:#d92a7e;}.cls-42{fill:#ff4040;}.cls-43{fill:#fe4041;}.cls-44{fill:#fe3f42;}.cls-45{fill:#fd3f43;}.cls-46{fill:#fd3f44;}.cls-47{fill:#fc3e45;}.cls-48{fill:#fb3e46;}.cls-49{fill:#fb3e47;}.cls-50{fill:#fa3d48;}.cls-51{fill:#f93d49;}.cls-52{fill:#f93c4a;}.cls-53{fill:#f83c4b;}.cls-54{fill:#f83c4c;}.cls-55{fill:#f73b4d;}.cls-56{fill:#f63b4e;}.cls-57{fill:#f63b4f;}.cls-58{fill:#f53a50;}.cls-59{fill:#f53a51;}.cls-60{fill:#f43a52;}.cls-61{fill:#f33953;}.cls-62{fill:#f33954;}.cls-63{fill:#f23955;}.cls-64{fill:#f13856;}.cls-65{fill:#f13857;}.cls-66{fill:#f03858;}.cls-67{fill:#d82a7f;}.cls-68{fill:#d82a80;}.cls-69{fill:#d72981;}.cls-70{fill:#d62982;}.cls-71{fill:#d62883;}.cls-72{fill:#d52884;}.cls-73{fill:#d52885;}.cls-74{fill:#d42786;}.cls-75{fill:#d32787;}.cls-76{fill:#d32788;}.cls-77{fill:#d22689;}.cls-78{fill:#d1268a;}.cls-79{fill:#d1268b;}.cls-80{fill:#d0258d;}.cls-81{fill:#d0258e;}.cls-82{fill:#cf258f;}.cls-83{fill:#ce2490;}.cls-84{fill:#ce2491;}.cls-85{fill:#cd2492;}.cls-86{fill:#cc2393;}.cls-87{fill:#cc2394;}.cls-88{fill:#cb2395;}.cls-89{fill:#cb2296;}.cls-90{fill:#ca2297;}.cls-91{fill:#c92198;}.cls-92{fill:#c92199;}.cls-93{fill:#c8219a;}.cls-94{fill:#c8209b;}.cls-95{fill:#c7209c;}.cls-96{fill:#c6209d;}.cls-97{fill:#c61f9e;}.cls-98{fill:#c51f9f;}.cls-99{fill:#c41fa0;}.cls-100{fill:#c41ea1;}.cls-101{fill:#c31ea2;}.cls-102{fill:#c31ea3;}.cls-103{fill:#c21da4;}.cls-104{fill:#c11da5;}.cls-105{fill:#c11da6;}.cls-106{fill:#c01ca7;}.cls-107{fill:#c01ca8;}.cls-108{fill:#bf1ba9;}.cls-109{fill:#be1baa;}.cls-110{fill:#be1bab;}.cls-111{fill:#bd1aac;}.cls-112{fill:#bc1aad;}.cls-113{fill:#bc1aae;}.cls-114{fill:#bb19af;}.cls-115{fill:#bb19b0;}.cls-116{fill:#ba19b1;}.cls-117{fill:#b918b2;}.cls-118{fill:#b918b3;}.cls-119{fill:#b818b4;}.cls-120{fill:#b817b5;}.cls-121{fill:#b717b6;}.cls-122{fill:#b617b7;}.cls-123{fill:#b616b8;}.cls-124{fill:#b516b9;}.cls-125{fill:#b416ba;}.cls-126{fill:#b415bb;}.cls-127{fill:#b315bc;}.cls-128{fill:#b314bd;}.cls-129{fill:#b214be;}.cls-130{fill:#b114bf;}.cls-131{fill:#b113c0;}.cls-132{fill:#b013c1;}.cls-133{fill:#b013c2;}.cls-134{fill:#af12c3;}.cls-135{fill:#ae12c4;}.cls-136{fill:#ae12c5;}.cls-137{fill:#ad11c6;}.cls-138{fill:#ac11c7;}.cls-139{fill:#ac11c8;}.cls-140{fill:#ab10c9;}.cls-141{fill:#ab10ca;}.cls-142{fill:#aa10cb;}.cls-143{fill:#a90fcc;}.cls-144{fill:#a90fcd;}.cls-145{fill:#a80fce;}.cls-146{fill:#a80ecf;}.cls-147{fill:#a70ed0;}.cls-148{fill:#a60dd1;}.cls-149{fill:#a60dd2;}.cls-150{fill:#a50dd3;}.cls-151{fill:#a40cd4;}.cls-152{fill:#a40cd5;}.cls-153{fill:#a30cd6;}.cls-154{fill:#a30bd7;}.cls-155{fill:#a20bd8;}.cls-156{fill:#101112;}.cls-157{fill:#101113;}</style><clipPath id="clip-path" transform="translate(1.5 0)"><path class="cls-1" d="M208.61,81.4a8.23,8.23,0,0,0,6-13.86l-5.84-6.23-52.45-56a16.74,16.74,0,0,0-24.44,0L114.53,23.84,97.17,5.3a16.74,16.74,0,0,0-24.44,0L4.51,78.14A16.79,16.79,0,0,0,4.5,101l68.23,72.85a16.74,16.74,0,0,0,24.44,0l17.36-18.54,17.36,18.54a16.74,16.74,0,0,0,24.44,0l52.45-56,5.84-6.23a8.23,8.23,0,0,0-6-13.86H148.48a17.46,17.46,0,0,0-12.74,5.52l-13.65,14.57L114.53,126l-13.77,14.69L85,157.53,21.32,89.59,85,21.64l15.81,16.89,13.77,14.7,7.56,8.08,13.65,14.57a17.46,17.46,0,0,0,12.74,5.52h60.13Zm-80.32,59.24,21.33-22.77h28.31a1.43,1.43,0,0,1,1,2.42l-34.87,37.24ZM179,58.88a1.44,1.44,0,0,1-1.06,2.43H149.62L128.29,38.53l15.82-16.89Z"/></clipPath></defs><g id="Layer_2" data-name="Layer 2"><g id="Isolation_Mode" data-name="Isolation Mode"><path class="cls-2" d="M96.18,43.43,63.67,78.15a16.78,16.78,0,0,0,0,22.89l32.51,34.71,13.76-14.7L80.48,89.59l29.46-31.46Z" transform="translate(1.5 0)"/><g class="cls-3"><rect class="cls-4" x="181.27" y="21.64" width="0.08" height="39.67"/><rect class="cls-5" x="179.84" y="21.64" width="1.43" height="39.67"/><rect class="cls-6" x="178.42" y="21.64" width="1.43" height="39.67"/><rect class="cls-7" x="176.99" y="21.64" width="1.43" height="39.67"/><rect class="cls-8" x="175.56" y="21.64" width="1.43" height="39.67"/><rect class="cls-9" x="174.14" y="21.64" width="1.43" height="39.67"/><rect class="cls-10" x="172.71" y="21.64" width="1.43" height="39.67"/><rect class="cls-11" x="171.28" y="21.64" width="1.43" height="39.67"/><rect class="cls-12" x="169.86" y="21.64" width="1.43" height="39.67"/><rect class="cls-13" x="168.43" y="21.64" width="1.43" height="39.67"/><rect class="cls-14" x="167" y="21.64" width="1.43" height="39.67"/><rect class="cls-15" x="165.58" y="21.64" width="1.43" height="39.67"/><rect class="cls-16" x="164.15" y="21.64" width="1.43" height="39.67"/><rect class="cls-17" x="162.72" y="21.64" width="1.43" height="39.67"/><rect class="cls-18" x="161.3" y="21.64" width="1.43" height="39.67"/><rect class="cls-19" x="159.87" y="21.64" width="1.43" height="39.67"/><rect class="cls-20" x="158.44" y="21.64" width="1.43" height="39.67"/><rect class="cls-21" x="157.02" y="21.64" width="1.43" height="39.67"/><rect class="cls-22" x="155.59" y="21.64" width="1.43" height="39.67"/><rect class="cls-23" x="154.16" y="21.64" width="1.43" height="39.67"/><rect class="cls-24" x="152.74" y="21.64" width="1.43" height="39.67"/><rect class="cls-25" x="151.31" y="21.64" width="1.43" height="39.67"/><rect class="cls-26" x="149.88" y="21.64" width="1.43" height="39.67"/><rect class="cls-27" x="148.45" y="21.64" width="1.43" height="39.67"/><rect class="cls-28" x="147.03" y="21.64" width="1.43" height="39.67"/><rect class="cls-29" x="145.6" y="21.64" width="1.43" height="39.67"/><rect class="cls-30" x="144.17" y="21.64" width="1.43" height="39.67"/><rect class="cls-31" x="142.75" y="21.64" width="1.43" height="39.67"/><rect class="cls-32" x="141.32" y="21.64" width="1.43" height="39.67"/><rect class="cls-33" x="139.89" y="21.64" width="1.43" height="39.67"/><rect class="cls-34" x="138.47" y="21.64" width="1.43" height="39.67"/><rect class="cls-35" x="137.04" y="21.64" width="1.43" height="39.67"/><rect class="cls-36" x="135.61" y="21.64" width="1.43" height="39.67"/><rect class="cls-37" x="134.19" y="21.64" width="1.43" height="39.67"/><rect class="cls-38" x="132.76" y="21.64" width="1.43" height="39.67"/><rect class="cls-39" x="131.33" y="21.64" width="1.43" height="39.67"/><rect class="cls-40" x="129.91" y="21.64" width="1.43" height="39.67"/><rect class="cls-41" x="129.8" y="21.64" width="0.11" height="39.67"/><rect class="cls-4" x="181.27" y="117.87" width="0.08" height="39.66"/><rect class="cls-5" x="179.84" y="117.87" width="1.43" height="39.66"/><rect class="cls-6" x="178.42" y="117.87" width="1.43" height="39.66"/><rect class="cls-7" x="176.99" y="117.87" width="1.43" height="39.66"/><rect class="cls-8" x="175.56" y="117.87" width="1.43" height="39.66"/><rect class="cls-9" x="174.14" y="117.87" width="1.43" height="39.66"/><rect class="cls-10" x="172.71" y="117.87" width="1.43" height="39.66"/><rect class="cls-11" x="171.28" y="117.87" width="1.43" height="39.66"/><rect class="cls-12" x="169.86" y="117.87" width="1.43" height="39.66"/><rect class="cls-13" x="168.43" y="117.87" width="1.43" height="39.66"/><rect class="cls-14" x="167" y="117.87" width="1.43" height="39.66"/><rect class="cls-15" x="165.58" y="117.87" width="1.43" height="39.66"/><rect class="cls-16" x="164.15" y="117.87" width="1.43" height="39.66"/><rect class="cls-17" x="162.72" y="117.87" width="1.43" height="39.66"/><rect class="cls-18" x="161.3" y="117.87" width="1.43" height="39.66"/><rect class="cls-19" x="159.87" y="117.87" width="1.43" height="39.66"/><rect class="cls-20" x="158.44" y="117.87" width="1.43" height="39.66"/><rect class="cls-21" x="157.02" y="117.87" width="1.43" height="39.66"/><rect class="cls-22" x="155.59" y="117.87" width="1.43" height="39.66"/><rect class="cls-23" x="154.16" y="117.87" width="1.43" height="39.66"/><rect class="cls-24" x="152.74" y="117.87" width="1.43" height="39.66"/><rect class="cls-25" x="151.31" y="117.87" width="1.43" height="39.66"/><rect class="cls-26" x="149.88" y="117.87" width="1.43" height="39.66"/><rect class="cls-27" x="148.45" y="117.87" width="1.43" height="39.66"/><rect class="cls-28" x="147.03" y="117.87" width="1.43" height="39.66"/><rect class="cls-29" x="145.6" y="117.87" width="1.43" height="39.66"/><rect class="cls-30" x="144.17" y="117.87" width="1.43" height="39.66"/><rect class="cls-31" x="142.75" y="117.87" width="1.43" height="39.66"/><rect class="cls-32" x="141.32" y="117.87" width="1.43" height="39.66"/><rect class="cls-33" x="139.89" y="117.87" width="1.43" height="39.66"/><rect class="cls-34" x="138.47" y="117.87" width="1.43" height="39.66"/><rect class="cls-35" x="137.04" y="117.87" width="1.43" height="39.66"/><rect class="cls-36" x="135.61" y="117.87" width="1.43" height="39.66"/><rect class="cls-37" x="134.19" y="117.87" width="1.43" height="39.66"/><rect class="cls-38" x="132.76" y="117.87" width="1.43" height="39.66"/><rect class="cls-39" x="131.33" y="117.87" width="1.43" height="39.66"/><rect class="cls-40" x="129.91" y="117.87" width="1.43" height="39.66"/><rect class="cls-41" x="129.8" y="117.87" width="0.11" height="39.66"/><rect class="cls-42" x="218.36" width="2.69" height="179.18"/><rect class="cls-42" x="216.94" width="1.43" height="179.18"/><rect class="cls-43" x="215.51" width="1.43" height="179.18"/><rect class="cls-44" x="214.08" width="1.43" height="179.18"/><rect class="cls-45" x="212.66" width="1.43" height="179.18"/><rect class="cls-46" x="211.23" width="1.43" height="179.18"/><rect class="cls-47" x="209.8" width="1.43" height="179.18"/><rect class="cls-48" x="208.38" width="1.43" height="179.18"/><rect class="cls-49" x="206.95" width="1.43" height="179.18"/><rect class="cls-50" x="205.52" width="1.43" height="179.18"/><rect class="cls-51" x="204.1" width="1.43" height="179.18"/><rect class="cls-52" x="202.67" width="1.43" height="179.18"/><rect class="cls-53" x="201.24" width="1.43" height="179.18"/><rect class="cls-54" x="199.82" width="1.43" height="179.18"/><rect class="cls-55" x="198.39" width="1.43" height="179.18"/><rect class="cls-56" x="196.96" width="1.43" height="179.18"/><rect class="cls-57" x="195.54" width="1.43" height="179.18"/><rect class="cls-58" x="194.11" width="1.43" height="179.18"/><rect class="cls-59" x="192.68" width="1.43" height="179.18"/><rect class="cls-60" x="191.26" width="1.43" height="179.18"/><rect class="cls-61" x="189.83" width="1.43" height="179.18"/><rect class="cls-62" x="188.4" width="1.43" height="179.18"/><rect class="cls-63" x="186.98" width="1.43" height="179.18"/><rect class="cls-64" x="185.55" width="1.43" height="179.18"/><rect class="cls-65" x="184.12" width="1.43" height="179.18"/><rect class="cls-66" x="182.7" width="1.43" height="179.18"/><rect class="cls-4" x="181.27" width="1.43" height="179.18"/><rect class="cls-5" x="179.84" width="1.43" height="179.18"/><rect class="cls-6" x="178.42" width="1.43" height="179.18"/><rect class="cls-7" x="176.99" width="1.43" height="179.18"/><rect class="cls-8" x="175.56" width="1.43" height="179.18"/><rect class="cls-9" x="174.14" width="1.43" height="179.18"/><rect class="cls-10" x="172.71" width="1.43" height="179.18"/><rect class="cls-11" x="171.28" width="1.43" height="179.18"/><rect class="cls-12" x="169.86" width="1.43" height="179.18"/><rect class="cls-13" x="168.43" width="1.43" height="179.18"/><rect class="cls-14" x="167" width="1.43" height="179.18"/><rect class="cls-15" x="165.58" width="1.43" height="179.18"/><rect class="cls-16" x="164.15" width="1.43" height="179.18"/><rect class="cls-17" x="162.72" width="1.43" height="179.18"/><rect class="cls-18" x="161.3" width="1.43" height="179.18"/><rect class="cls-19" x="159.87" width="1.43" height="179.18"/><rect class="cls-20" x="158.44" width="1.43" height="179.18"/><rect class="cls-21" x="157.02" width="1.43" height="179.18"/><rect class="cls-22" x="155.59" width="1.43" height="179.18"/><rect class="cls-23" x="154.16" width="1.43" height="179.18"/><rect class="cls-24" x="152.74" width="1.43" height="179.18"/><rect class="cls-25" x="151.31" width="1.43" height="179.18"/><rect class="cls-26" x="149.88" width="1.43" height="179.18"/><rect class="cls-27" x="148.45" width="1.43" height="179.18"/><rect class="cls-28" x="147.03" width="1.43" height="179.18"/><rect class="cls-29" x="145.6" width="1.43" height="179.18"/><rect class="cls-30" x="144.17" width="1.43" height="179.18"/><rect class="cls-31" x="142.75" width="1.43" height="179.18"/><rect class="cls-32" x="141.32" width="1.43" height="179.18"/><rect class="cls-33" x="139.89" width="1.43" height="179.18"/><rect class="cls-34" x="138.47" width="1.43" height="179.18"/><rect class="cls-35" x="137.04" width="1.43" height="179.18"/><rect class="cls-36" x="135.61" width="1.43" height="179.18"/><rect class="cls-37" x="134.19" width="1.43" height="179.18"/><rect class="cls-38" x="132.76" width="1.43" height="179.18"/><rect class="cls-39" x="131.33" width="1.43" height="179.18"/><rect class="cls-40" x="129.91" width="1.43" height="179.18"/><rect class="cls-41" x="128.48" width="1.43" height="179.18"/><rect class="cls-67" x="127.05" width="1.43" height="179.18"/><rect class="cls-68" x="125.63" width="1.43" height="179.18"/><rect class="cls-69" x="124.2" width="1.43" height="179.18"/><rect class="cls-70" x="122.77" width="1.43" height="179.18"/><rect class="cls-71" x="121.35" width="1.43" height="179.18"/><rect class="cls-72" x="119.92" width="1.43" height="179.18"/><rect class="cls-73" x="118.49" width="1.43" height="179.18"/><rect class="cls-74" x="117.07" width="1.43" height="179.18"/><rect class="cls-75" x="115.64" width="1.43" height="179.18"/><rect class="cls-76" x="114.21" width="1.43" height="179.18"/><rect class="cls-77" x="112.79" width="1.43" height="179.18"/><rect class="cls-78" x="111.36" width="1.43" height="179.18"/><rect class="cls-79" x="109.93" width="1.43" height="179.18"/><rect class="cls-80" x="108.51" width="1.43" height="179.18"/><rect class="cls-81" x="107.08" width="1.43" height="179.18"/><rect class="cls-82" x="105.65" width="1.43" height="179.18"/><rect class="cls-83" x="104.23" width="1.43" height="179.18"/><rect class="cls-84" x="102.8" width="1.43" height="179.18"/><rect class="cls-85" x="101.37" width="1.43" height="179.18"/><rect class="cls-86" x="99.95" width="1.43" height="179.18"/><rect class="cls-87" x="98.52" width="1.43" height="179.18"/><rect class="cls-88" x="97.09" width="1.43" height="179.18"/><rect class="cls-89" x="95.67" width="1.43" height="179.18"/><rect class="cls-90" x="94.24" width="1.43" height="179.18"/><rect class="cls-91" x="92.81" width="1.43" height="179.18"/><rect class="cls-92" x="91.39" width="1.43" height="179.18"/><rect class="cls-93" x="89.96" width="1.43" height="179.18"/><rect class="cls-94" x="88.53" width="1.43" height="179.18"/><rect class="cls-95" x="87.11" width="1.43" height="179.18"/><rect class="cls-96" x="85.68" width="1.43" height="179.18"/><rect class="cls-97" x="84.25" width="1.43" height="179.18"/><rect class="cls-98" x="82.83" width="1.43" height="179.18"/><rect class="cls-99" x="81.4" width="1.43" height="179.18"/><rect class="cls-100" x="79.97" width="1.43" height="179.18"/><rect class="cls-101" x="78.55" width="1.43" height="179.18"/><rect class="cls-102" x="77.12" width="1.43" height="179.18"/><rect class="cls-103" x="75.69" width="1.43" height="179.18"/><rect class="cls-104" x="74.27" width="1.43" height="179.18"/><rect class="cls-105" x="72.84" width="1.43" height="179.18"/><rect class="cls-106" x="71.41" width="1.43" height="179.18"/><rect class="cls-107" x="69.99" width="1.43" height="179.18"/><rect class="cls-108" x="68.56" width="1.43" height="179.18"/><rect class="cls-109" x="67.13" width="1.43" height="179.18"/><rect class="cls-110" x="65.71" width="1.43" height="179.18"/><rect class="cls-111" x="64.28" width="1.43" height="179.18"/><rect class="cls-112" x="62.85" width="1.43" height="179.18"/><rect class="cls-113" x="61.43" width="1.43" height="179.18"/><rect class="cls-114" x="60" width="1.43" height="179.18"/><rect class="cls-115" x="58.57" width="1.43" height="179.18"/><rect class="cls-116" x="57.14" width="1.43" height="179.18"/><rect class="cls-117" x="55.72" width="1.43" height="179.18"/><rect class="cls-118" x="54.29" width="1.43" height="179.18"/><rect class="cls-119" x="52.86" width="1.43" height="179.18"/><rect class="cls-120" x="51.44" width="1.43" height="179.18"/><rect class="cls-121" x="50.01" width="1.43" height="179.18"/><rect class="cls-122" x="48.58" width="1.43" height="179.18"/><rect class="cls-123" x="47.16" width="1.43" height="179.18"/><rect class="cls-124" x="45.73" width="1.43" height="179.18"/><rect class="cls-125" x="44.3" width="1.43" height="179.18"/><rect class="cls-126" x="42.88" width="1.43" height="179.18"/><rect class="cls-127" x="41.45" width="1.43" height="179.18"/><rect class="cls-128" x="40.02" width="1.43" height="179.18"/><rect class="cls-129" x="38.6" width="1.43" height="179.18"/><rect class="cls-130" x="37.17" width="1.43" height="179.18"/><rect class="cls-131" x="35.74" width="1.43" height="179.18"/><rect class="cls-132" x="34.32" width="1.43" height="179.18"/><rect class="cls-133" x="32.89" width="1.43" height="179.18"/><rect class="cls-134" x="31.46" width="1.43" height="179.18"/><rect class="cls-135" x="30.04" width="1.43" height="179.18"/><rect class="cls-136" x="28.61" width="1.43" height="179.18"/><rect class="cls-137" x="27.18" width="1.43" height="179.18"/><rect class="cls-138" x="25.76" width="1.43" height="179.18"/><rect class="cls-139" x="24.33" width="1.43" height="179.18"/><rect class="cls-140" x="22.9" width="1.43" height="179.18"/><rect class="cls-141" x="21.48" width="1.43" height="179.18"/><rect class="cls-142" x="20.05" width="1.43" height="179.18"/><rect class="cls-143" x="18.62" width="1.43" height="179.18"/><rect class="cls-144" x="17.2" width="1.43" height="179.18"/><rect class="cls-145" x="15.77" width="1.43" height="179.18"/><rect class="cls-146" x="14.34" width="1.43" height="179.18"/><rect class="cls-147" x="12.92" width="1.43" height="179.18"/><rect class="cls-148" x="11.49" width="1.43" height="179.18"/><rect class="cls-149" x="10.06" width="1.43" height="179.18"/><rect class="cls-150" x="8.64" width="1.43" height="179.18"/><rect class="cls-151" x="7.21" width="1.43" height="179.18"/><rect class="cls-152" x="5.78" width="1.43" height="179.18"/><rect class="cls-153" x="4.36" width="1.43" height="179.18"/><rect class="cls-154" x="2.93" width="1.43" height="179.18"/><rect class="cls-155" x="1.5" width="1.43" height="179.18"/><rect class="cls-155" width="1.5" height="179.18"/></g><path class="cls-156" d="M278.17,131.86V47.34h53v11H290.92V84.07H328.4V95H290.92v25.88h40.74v11Z" transform="translate(1.5 0)"/><path class="cls-157" d="M332.66,132.86H277.17V46.34h55v13H291.92V83.07H329.4V96H291.92v23.88h40.74Zm-53.49-2h51.49v-9H289.92V94H327.4V85.07H289.92V57.31h40.24v-9h-51Z" transform="translate(1.5 0)"/><path class="cls-156" d="M347.26,131.86V68.47h11.93V78.54h.66A15.39,15.39,0,0,1,366,70.47a17.44,17.44,0,0,1,10-3c.77,0,1.69,0,2.75.08s1.89.12,2.5.21v11.8a22,22,0,0,0-2.65-.47,26.84,26.84,0,0,0-3.79-.27A16.17,16.17,0,0,0,367,80.7a14,14,0,0,0-5.39,5.08,13.86,13.86,0,0,0-2,7.37v38.71Z" transform="translate(1.5 0)"/><path class="cls-157" d="M360.6,132.86H346.26V67.47h13.93V75.3a16.18,16.18,0,0,1,5.23-5.66,18.53,18.53,0,0,1,10.52-3.12c.79,0,1.73,0,2.8.08s1.95.13,2.58.22l.87.11v14l-1.27-.36a23.81,23.81,0,0,0-2.52-.44,24.89,24.89,0,0,0-3.65-.26,15.32,15.32,0,0,0-7.31,1.71,13.15,13.15,0,0,0-5,4.72,13,13,0,0,0-1.83,6.85Zm-12.34-2H358.6V93.15a14.9,14.9,0,0,1,2.13-7.89,15.07,15.07,0,0,1,5.76-5.44,17.31,17.31,0,0,1,8.26-1.95,27.44,27.44,0,0,1,3.93.28c.58.08,1.08.15,1.51.23V68.7c-.45,0-1-.07-1.55-.1-1,0-1.94-.08-2.7-.08a16.55,16.55,0,0,0-9.41,2.78,14.5,14.5,0,0,0-5.74,7.56l-.23.68h-2.37V69.47h-9.93Z" transform="translate(1.5 0)"/><path class="cls-156" d="M409.79,133.26a25.7,25.7,0,0,1-10.9-2.25,18.1,18.1,0,0,1-7.7-6.54A18.75,18.75,0,0,1,388.37,114a17,17,0,0,1,2.06-8.83A15.12,15.12,0,0,1,396,99.63a29.11,29.11,0,0,1,7.84-3.06A80.44,80.44,0,0,1,412.68,95q5.69-.66,9.24-1.09a13.39,13.39,0,0,0,5.16-1.42,3.5,3.5,0,0,0,1.61-3.22V89c0-3.6-1-6.4-3-8.38s-5-3-9-3q-6.24,0-9.8,2.74a14.92,14.92,0,0,0-4.94,6.09l-11.59-2.64a22.38,22.38,0,0,1,6-9.35,24.71,24.71,0,0,1,9.19-5.2,36.51,36.51,0,0,1,10.93-1.63,39.9,39.9,0,0,1,8.07.89,24,24,0,0,1,8,3.24,17.91,17.91,0,0,1,6.13,6.71q2.38,4.35,2.39,11.28v42.1H429v-8.67h-.5a17.25,17.25,0,0,1-3.59,4.71,19,19,0,0,1-6.15,3.84A24,24,0,0,1,409.79,133.26Zm2.68-9.9a18,18,0,0,0,8.77-2,14.27,14.27,0,0,0,5.57-5.31,13.67,13.67,0,0,0,1.92-7v-8.18a6.26,6.26,0,0,1-2.54,1.22,34.71,34.71,0,0,1-4.27.95c-1.6.26-3.15.5-4.66.7l-3.8.52a30.31,30.31,0,0,0-6.54,1.52,11.29,11.29,0,0,0-4.71,3.08,7.74,7.74,0,0,0-1.75,5.3,7.87,7.87,0,0,0,3.38,6.92A14.92,14.92,0,0,0,412.47,123.36Z" transform="translate(1.5 0)"/><path class="cls-157" d="M409.79,134.26a26.87,26.87,0,0,1-11.32-2.34,19.06,19.06,0,0,1-8.11-6.9,19.73,19.73,0,0,1-3-11.07,18.15,18.15,0,0,1,2.2-9.35,16.28,16.28,0,0,1,5.93-5.84,30.45,30.45,0,0,1,8.11-3.16A79.69,79.69,0,0,1,412.56,94q5.69-.66,9.24-1.09a12.66,12.66,0,0,0,4.76-1.28,2.48,2.48,0,0,0,1.13-2.37V89c0-3.31-.92-5.89-2.73-7.67s-4.62-2.68-8.32-2.68c-3.91,0-7,.85-9.2,2.54a14,14,0,0,0-4.61,5.67l-.32.79L389,84.54l.38-1.06a23.37,23.37,0,0,1,6.32-9.75,25.5,25.5,0,0,1,9.55-5.41,37.6,37.6,0,0,1,11.23-1.68,41.08,41.08,0,0,1,8.27.91,25.2,25.2,0,0,1,8.34,3.37A19,19,0,0,1,439.55,78c1.67,3,2.52,7,2.52,11.77v43.1H428v-7a21.7,21.7,0,0,1-2.39,2.71,20.18,20.18,0,0,1-6.47,4A25,25,0,0,1,409.79,134.26Zm6.85-57.63c4.24,0,7.51,1.09,9.71,3.26s3.34,5.22,3.34,9.09v.29a4.46,4.46,0,0,1-2.09,4.07A14.08,14.08,0,0,1,422,94.9q-3.56.43-9.25,1.1a76,76,0,0,0-8.72,1.55,28.48,28.48,0,0,0-7.57,2.94,14.34,14.34,0,0,0-5.21,5.14,16.11,16.11,0,0,0-1.92,8.32,17.79,17.79,0,0,0,2.66,10,17.22,17.22,0,0,0,7.28,6.19,24.86,24.86,0,0,0,10.48,2.15,23.13,23.13,0,0,0,8.62-1.45,18.42,18.42,0,0,0,5.83-3.63,16.69,16.69,0,0,0,3.39-4.43l.27-.56H430v8.67h10.05V89.76c0-4.43-.76-8.06-2.27-10.8A17.07,17.07,0,0,0,432,72.61a23.29,23.29,0,0,0-7.68-3.1,38.66,38.66,0,0,0-7.87-.87,35.52,35.52,0,0,0-10.63,1.59,23.73,23.73,0,0,0-8.82,5,21,21,0,0,0-5.37,7.88l9.68,2.2a16.47,16.47,0,0,1,4.9-5.72C408.77,77.62,412.28,76.63,416.64,76.63Zm-4.17,47.73a15.91,15.91,0,0,1-9.19-2.51,9.8,9.8,0,0,1-1.82-13.7,12.21,12.21,0,0,1,5.12-3.35,31,31,0,0,1,6.76-1.58l3.78-.52c1.51-.2,3.05-.44,4.64-.7a34,34,0,0,0,4.15-.92,5.19,5.19,0,0,0,2.11-1l1.71-1.71V109a14.7,14.7,0,0,1-2.06,7.54,15.28,15.28,0,0,1-5.95,5.67A18.82,18.82,0,0,1,412.47,124.36Zm15.26-21.79c-.37.15-.79.29-1.25.43a38.23,38.23,0,0,1-4.4,1c-1.6.26-3.17.49-4.69.7l-3.8.52a29.55,29.55,0,0,0-6.33,1.47,10.29,10.29,0,0,0-4.29,2.8,6.72,6.72,0,0,0-1.51,4.64,6.84,6.84,0,0,0,3,6.09,14,14,0,0,0,8.06,2.16,17,17,0,0,0,8.29-1.9,13.35,13.35,0,0,0,5.19-4.93,12.8,12.8,0,0,0,1.78-6.53Z" transform="translate(1.5 0)"/><path class="cls-156" d="M505,83.94l-11.19,2a13.25,13.25,0,0,0-2.2-4.09,11.34,11.34,0,0,0-4.07-3.18,14.72,14.72,0,0,0-6.4-1.24,15.45,15.45,0,0,0-8.75,2.34,7,7,0,0,0-3.5,6,6.31,6.31,0,0,0,2.35,5.12q2.36,1.94,7.59,3.17l10.07,2.32q8.76,2,13,6.23a14.6,14.6,0,0,1,4.3,10.94A16.66,16.66,0,0,1,503,123.67a21.75,21.75,0,0,1-9.12,7,33.9,33.9,0,0,1-13.52,2.52q-10.65,0-17.38-4.56a19.14,19.14,0,0,1-8.25-13l11.93-1.82a11.32,11.32,0,0,0,4.58,7,15.7,15.7,0,0,0,9,2.37q6.06,0,9.7-2.54c2.41-1.69,3.63-3.76,3.63-6.21a6.51,6.51,0,0,0-2.21-5,14.64,14.64,0,0,0-6.75-3L473.88,104q-8.88-2-13.1-6.44a15.5,15.5,0,0,1-4.23-11.18,16,16,0,0,1,3.13-9.82A20.72,20.72,0,0,1,468.35,70,31.92,31.92,0,0,1,481,67.64q10.28,0,16.18,4.44A20.88,20.88,0,0,1,505,83.94Z" transform="translate(1.5 0)"/><path class="cls-157" d="M480.32,134.14c-7.27,0-13.31-1.59-17.94-4.73a20.23,20.23,0,0,1-8.68-13.63l-.18-1,13.86-2.1.21.89a10.25,10.25,0,0,0,4.17,6.44,14.79,14.79,0,0,0,8.48,2.2c3.81,0,6.88-.79,9.12-2.35s3.21-3.28,3.21-5.4a5.48,5.48,0,0,0-1.89-4.25,13.82,13.82,0,0,0-6.29-2.82L473.67,105c-6.09-1.39-10.67-3.65-13.61-6.72a16.53,16.53,0,0,1-4.51-11.88A17,17,0,0,1,458.88,76,21.79,21.79,0,0,1,468,69.1,33,33,0,0,1,481,66.64c7,0,12.68,1.56,16.78,4.64A21.9,21.9,0,0,1,506,83.7l.26,1-13.1,2.32-.27-.82a12.73,12.73,0,0,0-2-3.79,10.36,10.36,0,0,0-3.72-2.89,13.79,13.79,0,0,0-6-1.14A14.54,14.54,0,0,0,473,80.59a6,6,0,0,0-3.06,5.17,5.32,5.32,0,0,0,2,4.35c1.44,1.19,3.86,2.19,7.18,3l10.07,2.31c6,1.39,10.53,3.57,13.52,6.49a15.71,15.71,0,0,1,4.59,11.66,17.63,17.63,0,0,1-3.48,10.72,22.76,22.76,0,0,1-9.53,7.28A35.11,35.11,0,0,1,480.32,134.14Zm-24.44-17.71a18.07,18.07,0,0,0,7.62,11.32c4.3,2.91,9.95,4.39,16.82,4.39a33,33,0,0,0,13.12-2.44,20.84,20.84,0,0,0,8.71-6.63,15.66,15.66,0,0,0,3.09-9.53,13.57,13.57,0,0,0-4-10.23c-2.71-2.66-6.94-4.67-12.56-6L478.61,95c-3.69-.87-6.3-2-8-3.38a7.3,7.3,0,0,1-2.71-5.89,8,8,0,0,1,3.95-6.84,16.48,16.48,0,0,1,9.3-2.5A15.7,15.7,0,0,1,488,77.76a12.37,12.37,0,0,1,4.42,3.46,15.4,15.4,0,0,1,2.07,3.57l9.27-1.64a19.79,19.79,0,0,0-7.14-10.27c-3.74-2.81-9-4.24-15.58-4.24a31.09,31.09,0,0,0-12.28,2.29,19.94,19.94,0,0,0-8.26,6.27,15,15,0,0,0-2.93,9.22,14.41,14.41,0,0,0,3.95,10.49c2.67,2.79,6.91,4.86,12.6,6.16l10.72,2.35a15.68,15.68,0,0,1,7.21,3.29,7.51,7.51,0,0,1,2.54,5.73c0,2.79-1.37,5.15-4.06,7s-6,2.72-10.27,2.72a16.67,16.67,0,0,1-9.61-2.55,12.07,12.07,0,0,1-4.75-6.73Z" transform="translate(1.5 0)"/><path class="cls-156" d="M547.1,133.14a30.93,30.93,0,0,1-16.12-4,26.84,26.84,0,0,1-10.4-11.35,38.05,38.05,0,0,1-3.65-17.19,38.35,38.35,0,0,1,3.65-17.17,27.92,27.92,0,0,1,10.23-11.6,28.2,28.2,0,0,1,15.42-4.17,30.94,30.94,0,0,1,10.4,1.78,25.23,25.23,0,0,1,9,5.57A26.15,26.15,0,0,1,572,84.83a41.21,41.21,0,0,1,2.31,14.67v4.38H523.9V94.63h38.3a18.32,18.32,0,0,0-2-8.64,15.06,15.06,0,0,0-5.55-6,15.67,15.67,0,0,0-8.36-2.18,16.11,16.11,0,0,0-9.06,2.53A17.24,17.24,0,0,0,531.31,87a19,19,0,0,0-2.09,8.81V103a23.76,23.76,0,0,0,2.25,10.81,15.78,15.78,0,0,0,6.3,6.79,18.5,18.5,0,0,0,9.45,2.33,19,19,0,0,0,6.39-1,13.47,13.47,0,0,0,5-3,13.28,13.28,0,0,0,3.22-5l11.68,2.1a21.12,21.12,0,0,1-5,9,24.16,24.16,0,0,1-9,6A33.55,33.55,0,0,1,547.1,133.14Z" transform="translate(1.5 0)"/><path class="cls-157" d="M547.1,134.14A31.93,31.93,0,0,1,530.47,130a27.87,27.87,0,0,1-10.79-11.76,39.26,39.26,0,0,1-3.75-17.63A39.6,39.6,0,0,1,519.68,83a28.34,28.34,0,0,1,26.55-16.33A32.35,32.35,0,0,1,557,68.47a26.42,26.42,0,0,1,9.39,5.79,27.29,27.29,0,0,1,6.57,10.21,42.6,42.6,0,0,1,2.37,15v5.38h-45a21.47,21.47,0,0,0,2.09,8.49,14.91,14.91,0,0,0,5.9,6.38,17.67,17.67,0,0,0,9,2.19,18.35,18.35,0,0,0,6.06-1,12.1,12.1,0,0,0,7.61-7.43l.29-.79,13.58,2.45-.29,1a22.08,22.08,0,0,1-5.25,9.44,25.48,25.48,0,0,1-9.4,6.24A35,35,0,0,1,547.1,134.14Zm-.87-65.5a26.3,26.3,0,0,0-24.75,15.21,37.58,37.58,0,0,0-3.55,16.73,37.3,37.3,0,0,0,3.54,16.74,26,26,0,0,0,10,10.94,30.12,30.12,0,0,0,15.61,3.88,32.76,32.76,0,0,0,12-2.06,23.31,23.31,0,0,0,8.67-5.73,20.11,20.11,0,0,0,4.47-7.55L562.45,115a13.85,13.85,0,0,1-3.15,4.59,14.65,14.65,0,0,1-5.36,3.26,20.2,20.2,0,0,1-6.72,1.06,19.58,19.58,0,0,1-10-2.46,16.88,16.88,0,0,1-6.69-7.21,23.56,23.56,0,0,1-2.31-9.39H522.9V93.63h5.43a19.74,19.74,0,0,1,2.09-7.11,18.17,18.17,0,0,1,6.28-7,17.2,17.2,0,0,1,9.61-2.7,16.71,16.71,0,0,1,8.88,2.33,16.07,16.07,0,0,1,5.91,6.35,19.33,19.33,0,0,1,2.1,9.11v1h-33a.86.86,0,0,0,0,.16v7.09h43.07V99.5a40.45,40.45,0,0,0-2.24-14.31A25.62,25.62,0,0,0,565,75.71a24.43,24.43,0,0,0-8.68-5.35A30.27,30.27,0,0,0,546.23,68.64ZM524.9,102.88h3.32V95.79a.86.86,0,0,1,0-.16H524.9Zm5.44-9.25h30.84a16.87,16.87,0,0,0-1.85-7.18,14.12,14.12,0,0,0-5.18-5.57,14.73,14.73,0,0,0-7.84-2,15.23,15.23,0,0,0-8.51,2.37,16.26,16.26,0,0,0-5.6,6.22A18,18,0,0,0,530.34,93.63Z" transform="translate(1.5 0)"/><path class="cls-156" d="M619.81,131.86V47.34h12.34v31.4h.75A34.16,34.16,0,0,1,636,74.16a17.87,17.87,0,0,1,5.61-4.56,19.91,19.91,0,0,1,9.5-2,24.83,24.83,0,0,1,13.7,3.88,26.21,26.21,0,0,1,9.47,11.19q3.45,7.31,3.45,17.58a41.32,41.32,0,0,1-3.43,17.6,26.57,26.57,0,0,1-9.41,11.27,24.32,24.32,0,0,1-13.66,3.94,20.11,20.11,0,0,1-9.43-1.94,17.84,17.84,0,0,1-5.72-4.54A34.79,34.79,0,0,1,632.9,122h-1v9.86Zm12.1-31.7a32.31,32.31,0,0,0,1.94,11.72,17.63,17.63,0,0,0,5.61,7.87,15.86,15.86,0,0,0,18.24-.13,18.12,18.12,0,0,0,5.63-8,32.18,32.18,0,0,0,1.92-11.44,31.62,31.62,0,0,0-1.88-11.26A17.47,17.47,0,0,0,657.76,81a16.31,16.31,0,0,0-18.36-.12,16.9,16.9,0,0,0-5.6,7.72A32.29,32.29,0,0,0,631.91,100.16Z" transform="translate(1.5 0)"/><path class="cls-157" d="M651.22,134.1a21,21,0,0,1-9.9-2.06,18.81,18.81,0,0,1-6-4.8c-.95-1.2-1.76-2.32-2.43-3.35v9H618.81V46.34h14.34V76.39c.58-.88,1.27-1.83,2.05-2.84a18.91,18.91,0,0,1,5.93-4.83,20.85,20.85,0,0,1,10-2.08,25.86,25.86,0,0,1,14.24,4,27.31,27.31,0,0,1,9.84,11.6,42.25,42.25,0,0,1,3.54,18,42.52,42.52,0,0,1-3.52,18A27.65,27.65,0,0,1,665.43,130,25.31,25.31,0,0,1,651.22,134.1ZM630.86,121h2.63l.28.51a33.31,33.31,0,0,0,3.09,4.49,17.1,17.1,0,0,0,5.4,4.28,19.3,19.3,0,0,0,9,1.82,23.34,23.34,0,0,0,13.11-3.78,25.6,25.6,0,0,0,9-10.85,40.37,40.37,0,0,0,3.34-17.18,40.24,40.24,0,0,0-3.35-17.16,25.43,25.43,0,0,0-9.11-10.77,23.91,23.91,0,0,0-13.16-3.72,19,19,0,0,0-9,1.84,16.9,16.9,0,0,0-5.3,4.3,34.29,34.29,0,0,0-3,4.44l-.28.52h-2.34V48.34H620.81v82.52h10.05Zm17.59,2.57a15.37,15.37,0,0,1-9.6-3,18.69,18.69,0,0,1-5.94-8.3,33.65,33.65,0,0,1-2-12.08,33.41,33.41,0,0,1,2-11.91,17.92,17.92,0,0,1,5.93-8.16,17.29,17.29,0,0,1,19.57.13,18.49,18.49,0,0,1,5.94,8.33,32.87,32.87,0,0,1,1.94,11.61,33.21,33.21,0,0,1-2,11.79,19.25,19.25,0,0,1-5.95,8.46A15.42,15.42,0,0,1,648.45,123.57Zm0-44.45A13.83,13.83,0,0,0,640,81.69,16,16,0,0,0,634.74,89a31.21,31.21,0,0,0-1.83,11.19,31.67,31.67,0,0,0,1.87,11.36,16.7,16.7,0,0,0,5.29,7.43,14.86,14.86,0,0,0,17-.11,17.27,17.27,0,0,0,5.32-7.6,33.95,33.95,0,0,0,0-22,16.6,16.6,0,0,0-5.29-7.45A13.92,13.92,0,0,0,648.45,79.12Z" transform="translate(1.5 0)"/><path class="cls-156" d="M718.12,156.83a38,38,0,0,1-13-2,25.25,25.25,0,0,1-8.85-5.22,22,22,0,0,1-5.12-7l10.61-4.37a27.87,27.87,0,0,0,3,3.75,15.54,15.54,0,0,0,5.12,3.47,20.69,20.69,0,0,0,8.35,1.44,19,19,0,0,0,11.6-3.38q4.59-3.39,4.58-10.73V120.3h-.78a28.42,28.42,0,0,1-3.2,4.5,17.69,17.69,0,0,1-5.72,4.29,21,21,0,0,1-9.45,1.82,26.19,26.19,0,0,1-13.51-3.53,24.53,24.53,0,0,1-9.5-10.44q-3.48-6.91-3.48-17a40.11,40.11,0,0,1,3.44-17.34,26.2,26.2,0,0,1,9.47-11.08,24.83,24.83,0,0,1,13.66-3.86,20.14,20.14,0,0,1,9.54,2,17.92,17.92,0,0,1,5.67,4.56,36.58,36.58,0,0,1,3.16,4.58h.91V68.47h12.09v64.79q0,8.1-3.8,13.31a22.43,22.43,0,0,1-10.25,7.74A39.79,39.79,0,0,1,718.12,156.83ZM718,120.68a15.73,15.73,0,0,0,9-2.5,15.46,15.46,0,0,0,5.62-7.18,29.64,29.64,0,0,0,1.92-11.25,31.06,31.06,0,0,0-1.9-11.27,17,17,0,0,0-5.57-7.61,16.42,16.42,0,0,0-18.37.12,17.44,17.44,0,0,0-5.59,7.78,30.62,30.62,0,0,0-1.88,11,29,29,0,0,0,1.9,10.94,16.09,16.09,0,0,0,5.63,7.34A15.53,15.53,0,0,0,718,120.68Z" transform="translate(1.5 0)"/><path class="cls-157" d="M718.12,157.83a39.18,39.18,0,0,1-13.32-2,26.32,26.32,0,0,1-9.2-5.44,23.17,23.17,0,0,1-5.34-7.35l-.42-.94L702.17,137l.45.71a26.44,26.44,0,0,0,2.88,3.61,14.66,14.66,0,0,0,4.79,3.23,19.66,19.66,0,0,0,8,1.36,18.11,18.11,0,0,0,11-3.19c2.81-2.07,4.17-5.32,4.17-9.92V122.55a34.21,34.21,0,0,1-2.22,2.9,18.88,18.88,0,0,1-6,4.54,22.32,22.32,0,0,1-9.9,1.92,27.22,27.22,0,0,1-14-3.67,25.65,25.65,0,0,1-9.88-10.85c-2.38-4.73-3.59-10.61-3.59-17.47a41.17,41.17,0,0,1,3.54-17.77,27.23,27.23,0,0,1,9.84-11.49,25.81,25.81,0,0,1,14.19-4,21.08,21.08,0,0,1,10,2.08,19.05,19.05,0,0,1,6,4.82c.88,1.13,1.64,2.18,2.28,3.14V67.47h14.09v65.79c0,5.59-1.34,10.26-4,13.9a23.45,23.45,0,0,1-10.7,8.08A40.87,40.87,0,0,1,718.12,157.83Zm-25.59-14.72A21.54,21.54,0,0,0,697,148.9a24.38,24.38,0,0,0,8.5,5,37.27,37.27,0,0,0,12.64,1.92,39,39,0,0,0,14.18-2.45,21.46,21.46,0,0,0,9.81-7.4c2.4-3.29,3.61-7.57,3.61-12.72V69.47H735.63V79.74h-2.49l-.29-.51a37.47,37.47,0,0,0-3.07-4.45,17,17,0,0,0-5.37-4.3,19.19,19.19,0,0,0-9.06-1.84,24,24,0,0,0-13.12,3.7A25.31,25.31,0,0,0,693.12,83a39.23,39.23,0,0,0-3.34,16.91c0,6.55,1.13,12.12,3.38,16.57a23.67,23.67,0,0,0,9.1,10,25.32,25.32,0,0,0,13,3.39,20.26,20.26,0,0,0,9-1.71,16.66,16.66,0,0,0,5.39-4,26.91,26.91,0,0,0,3.09-4.34l.29-.52h2.37v13.47c0,5.21-1.68,9.09-5,11.53a20,20,0,0,1-12.2,3.58,21.67,21.67,0,0,1-8.76-1.53,16.53,16.53,0,0,1-5.44-3.7,30.8,30.8,0,0,1-2.64-3.2ZM718,121.68a16.66,16.66,0,0,1-9.81-2.83,17.14,17.14,0,0,1-6-7.79,30.17,30.17,0,0,1-2-11.31,31.4,31.4,0,0,1,2-11.33,18.47,18.47,0,0,1,5.91-8.22,17.39,17.39,0,0,1,19.57-.13,17.91,17.91,0,0,1,5.91,8.05,32.13,32.13,0,0,1,2,11.63,30.65,30.65,0,0,1-2,11.63,16.52,16.52,0,0,1-6,7.63A16.75,16.75,0,0,1,718,121.68Zm0-42.56a13.83,13.83,0,0,0-8.68,2.67,16.54,16.54,0,0,0-5.27,7.34,29.76,29.76,0,0,0-1.81,10.62,28,28,0,0,0,1.83,10.56,15.12,15.12,0,0,0,5.28,6.91,14.65,14.65,0,0,0,8.65,2.46,14.81,14.81,0,0,0,8.45-2.33,14.52,14.52,0,0,0,5.25-6.73,28.7,28.7,0,0,0,1.85-10.87,30.1,30.1,0,0,0-1.83-10.9,16,16,0,0,0-5.24-7.18A13.84,13.84,0,0,0,718,79.12Z" transform="translate(1.5 0)"/><polygon class="cls-156" points="590.63 118.58 603.9 118.58 603.9 131.86 590.63 131.86 590.63 118.58 590.63 118.58"/><path class="cls-157" d="M603.4,132.86H588.13V117.58H603.4Zm-13.27-2H601.4V119.58H590.13Z" transform="translate(1.5 0)"/></g></g></svg>